<svg xmlns="http://www.w3.org/2000/svg" viewBox="0 0 454.22 454"><defs><style>.cls-1{fill:#1c1d1d;}.cls-2{fill:#646666;}.cls-3{fill:#bcbec0;}.cls-4{fill:#656565;}.cls-5{fill:#7d8fc8;}.cls-6{fill:#97c93e;}.cls-7{fill:#f26a65;}.cls-8{fill:#3d3e3d;}</style></defs><g id="Layer_2" data-name="Layer 2"><g id="Layer_1-2" data-name="Layer 1"><path class="cls-1" d="M.24,227c0-60,.5-120-.24-180C-.31,21.53,20.35,1.79,45.77.08,47.67,0,49.6,0,51.51,0H403.9c17.5,0,32,6.28,42.61,20.47a38.5,38.5,0,0,1,7.71,23.63q0,182.9,0,365.79c0,20.8-16.35,39-38.41,43.07a59.77,59.77,0,0,1-10.93,1q-177.63,0-355.26,0C27,454,7.73,440.67,1.82,421.19a41.6,41.6,0,0,1-1.6-12.26Q.27,318,.24,227ZM295.72,420.75a36.13,36.13,0,0,0,14.39.05,18.33,18.33,0,0,0,3.25.58c30.8,0,61.61.11,92.41,0,9.51-.05,16.78-7.68,16.79-17.35q.09-79.72,0-159.45c0-10.11-7.46-17.53-17.6-17.54q-87.14-.08-174.29,0c-3,0-6.06.08-8.24,2.69-7.53-2-14.3-5.73-21.2-9.17,0-1.43.12-2.87.12-4.3q0-81.6,0-163.21c0-10.12-6.55-16.6-16.74-16.61H56.35c-10.43,0-16.84,6.48-16.84,17V405.18c0,10.81,6.36,17.19,17.12,17.19H183.94c11.11,0,17.28-6.15,17.46-17.36,4,2.95,8.08,5.67,13.15,6.4,3.29,6.95,9,10,16.46,10,20,.07,40,0,60.06,0C292.64,421.4,294.27,421.65,295.72,420.75Zm21.91-201.42q43.08,0,86.15,0c11.69,0,18.8-7.09,18.81-18.74q0-72.27,0-144.53c0-11.61-7.16-18.68-18.87-18.69H231.91c-12,0-19,7-19,19q0,72,0,144.06c0,11.94,7.06,18.92,19.11,18.92Z"/><path class="cls-2" d="M317.63,219.33H232c-12.05,0-19.11-7-19.11-18.92q0-72,0-144.06c0-12,7-19,19-19H403.72c11.71,0,18.86,7.08,18.87,18.69q0,72.26,0,144.53c0,11.65-7.12,18.73-18.81,18.74Q360.7,219.36,317.63,219.33Z"/><path class="cls-3" d="M163.86,203.92l37.38,16.61c6.9,3.44,13.67,7.19,21.2,9.17.63,1.55,2.26,1.68,3.49,2.23Q275.22,254,324.56,276c8.51,3.79,14.83,9.21,15,19.49s-5.71,15.94-14.4,19.74c-8.3,3.63-16.44,7.66-24.84,11-3.84,1.54-3.34,2.64-1,5.1,12.23,12.72,24.33,25.56,36.5,38.34,8.08,8.48,9,20.42.92,28.28-8.36,8.14-16.16,17.1-26.65,22.81a36.13,36.13,0,0,1-14.39-.05c-17.05-14.62-30.26-32.91-46.45-48.89-4.51,8.49-9.11,16.47-13,24.76-4.43,9.32-11,15-21.68,14.79-5.07-.73-9.17-3.45-13.15-6.4-8.92-18.5-14.14-38.35-21-57.59-10.56-29.66-20.62-59.5-30.94-89.25-.51-1.45-.57-3.19-2.05-4.2-2.37-7.2-4.66-14.43-7.14-21.59-2.22-6.39-2.47-12.63.63-18.8,3.65-5,7.93-9,14.38-10C158.14,203.55,161,203.23,163.86,203.92Z"/><path class="cls-4" d="M310.11,420.8c10.49-5.71,18.29-14.67,26.65-22.81,8.06-7.86,7.16-19.8-.92-28.28-12.17-12.78-24.27-25.62-36.5-38.34-2.37-2.46-2.87-3.56,1-5.1,8.4-3.38,16.54-7.41,24.84-11,8.69-3.8,14.57-9.47,14.4-19.74s-6.48-15.7-15-19.49q-49.32-22-98.63-44.07c-1.23-.55-2.86-.68-3.49-2.23,2.18-2.61,5.23-2.69,8.24-2.69q87.15,0,174.29,0c10.14,0,17.59,7.43,17.6,17.54q.07,79.72,0,159.45c0,9.67-7.28,17.3-16.79,17.35-30.8.13-61.61.05-92.41,0A18.33,18.33,0,0,1,310.11,420.8Z"/><path class="cls-4" d="M214.55,411.41c10.71.17,17.25-5.47,21.68-14.79,3.93-8.29,8.53-16.27,13-24.76,16.19,16,29.4,34.27,46.45,48.89-1.45.9-3.08.65-4.65.65-20,0-40,.06-60.06,0C223.6,421.37,217.84,418.36,214.55,411.41Z"/><path class="cls-5" d="M69.31,94.46c.58-7.16-.61-15.89.77-24.66C71.78,59,79.24,54,88.21,50.39a21.9,21.9,0,0,1,8.4-1.46c12.12.1,24.24.18,36.36,0a27.72,27.72,0,0,1,28.08,28c-.12,12.92-.08,25.83,0,38.75.08,14-11.94,28.3-27.82,27.93-12.27-.29-24.55,0-36.83-.07a27,27,0,0,1-27-26.47C69.18,110.07,69.31,103.05,69.31,94.46ZM114,137a31.82,31.82,0,0,0,15.58-3.22,16.24,16.24,0,0,0,4.37-3.61c2.78-2.74,3.26-5.67.71-8.87s-5.64-3.57-8.75-1.18c-6.67,5.11-13.31,4-20.06.37a34.64,34.64,0,0,0-4.16-2.3c-3.68-1.35-6.6,0-8.58,3.17S92,127.47,95,129.64C101.39,134.16,108.47,136.69,114,137Zm22.18-40.52h0a63.1,63.1,0,0,0,.05,7.15,5.84,5.84,0,0,0,6,5.55c3.63.11,6.22-1.9,6.47-5.54a112,112,0,0,0,0-14.77c-.21-3.42-2.51-5.5-6-5.6-3.69-.12-6,2-6.47,5.6A62.27,62.27,0,0,0,136.17,96.52Zm-43.88-.28c0-2.38-.16-4.77,0-7.14.31-3.59-1.45-5.46-4.75-5.78-3.69-.35-6.46,1.58-6.8,5.16a82.14,82.14,0,0,0,0,15.68c.35,3.54,3.22,5.42,6.88,5,3.32-.34,5-2.26,4.7-5.83C92.12,101,92.29,98.62,92.29,96.24Z"/><path class="cls-6" d="M118.27,281.59c4.78,0,9.61.37,14.35-.11,5-.5,7.92,2.28,8.29,8A209.13,209.13,0,0,1,141,311c-.23,6-3.64,8.86-11,8.73-3.88-.06-4.28,1.39-4.35,4.68-.08,3.51,1.15,4.26,4.38,4.14,6.37-.24,12.76,0,19.15-.11,3-.06,5.32,1.12,6.53,3.65,2.55,5.36,5.69,10.43,7.65,16.1,1.13,3.24,1.48,6.33-1.44,8.36-3.17,2.19-6.74,2.51-10-.45-2.67-2.45-3.65-5.84-5.22-8.9-2-3.78-7.67-6.15-11.2-4.18-2,1.13-2,3.7-2.06,5.87,0,2.7.37,5.44-2.31,7.33a2.25,2.25,0,0,0-.49,2.68q2.85,6.71,6,13.3c.69,1.47,1.78,1.05,3.16.53,4.68-1.74,9.42-3.33,14.22-4.7s8.69.37,9.85,4c1.43,4.48-.62,8.25-5.6,10Q148,385.62,137.75,389c-5.81,1.9-8.32.92-11.21-4.4-3.37-6.22-6.74-12.43-9.92-18.74-1.27-2.53-2.25-3.14-4.89-1.34-11,7.53-22.1,14.82-33.21,22.14-2.47,1.63-4.82,3.5-8.18,3.25-3.92-.29-5.57-3-6.4-6-.7-2.49.1-4.77,2.72-6.73C76,370.16,86.12,364.46,95,357c1.72-1.46,4.11-1.41,5.82-3,1.91-1.78,2.54-3.78,1.52-6-1.16-2.49-3.15-.43-4.55-.14a65.27,65.27,0,0,0-8.47,2.74c-4,1.41-7.21.42-8.91-3.51-3.54-8.18-7-16.43-8.24-25.33-.52-3.77-.24-7.79,4.37-9.33,3.92-1.31,7.81.76,9.79,5.33,1.43,3.29,2.39,6.77,3.65,10.13,1.65,4.39,4.24,5.88,8.44,4.1,2.92-1.24,6-1.77,8.91-2.86,1.85-.68,3.09-1.18,3.18-3.73.14-4.09-.65-5.84-5.34-5.64-7.71.31-11-3.38-11.06-11.25-.06-5.9-.07-11.81,0-17.71s3.35-9.2,9.31-9.21Zm-7.89,22.14c0-1.91-.16-3.83,0-5.72.39-3.78-2.26-3-4.35-3s-4.61-.77-4.36,3,0,7.62.07,11.44c0,1.21-.25,2.4,1.67,2.81,5.16,1.12,6.93-.1,6.94-5.2Z"/><path class="cls-7" d="M140.9,213.58c-3.1,6.17-2.85,12.41-.63,18.8,2.48,7.16,4.77,14.39,7.14,21.59-18.83,17.33-48.08,17.79-67.78,1.46-23.37-19.38-26.46-54.22-4.2-77.05,19.37-19.87,49.35-20.93,70.3-3.9a51.55,51.55,0,0,1,18.13,29.45c-2.84-.7-5.72-.38-8.58-.3-3.34-13.71-11.64-23.29-24.32-29.25-3.33-1.56-6.21-.84-8.81,1.42a146.41,146.41,0,0,0-21.63,24.08c-.83,1.12-1.5,2,.16,3,3.58,2.3,5.26,5.84,5.9,9.91.2,1.24.26,1.89,1.93,1.78C119.29,213.89,130.14,215.18,140.9,213.58Zm-29.77,44c3.88.2,7.55-.93,11.3-1.56s3.36-2.09,1.36-4.21c-7.21-7.65-14.47-15.26-21.67-22.92-1.21-1.28-2.29-1.86-4.14-1a14.06,14.06,0,0,1-12-.17,3.39,3.39,0,0,0-4.27.73c-4.64,4.34-4.68,10.91.06,15.09,1.55,1.37,3.15,2.68,4.75,4C93.64,253.41,101.59,257.43,111.13,257.55ZM78,190.82c-6.46,5.84-7.46,12.85-6.77,20.42.15,1.65,0,3.34,2.37,3.2,1.76-.11,3.87.76,4.33-2.3a10.53,10.53,0,0,1,2.23-5.21c3.1-3.49,2.36-6.86.48-10.46C79.67,194.68,78.89,192.81,78,190.82Z"/><path class="cls-8" d="M201.4,405c-.18,11.21-6.35,17.36-17.46,17.36H56.63c-10.76,0-17.12-6.38-17.12-17.19V53.4c0-10.51,6.41-17,16.84-17H184.62c10.19,0,16.73,6.49,16.74,16.61q0,81.6,0,163.21c0,1.43-.08,2.87-.12,4.3l-37.38-16.6a51.55,51.55,0,0,0-18.13-29.45c-20.95-17-50.93-16-70.3,3.9-22.26,22.83-19.17,57.67,4.2,77.05,19.7,16.33,49,15.87,67.78-1.46,1.48,1,1.54,2.75,2.05,4.2,10.32,29.75,20.38,59.59,30.94,89.25C187.26,366.66,192.48,386.51,201.4,405ZM69.31,94.46c0,8.59-.13,15.61,0,22.62a27,27,0,0,0,27.05,26.47c12.28.06,24.56-.22,36.83.07,15.88.37,27.9-14,27.82-27.93-.07-12.92-.11-25.83,0-38.75a27.72,27.72,0,0,0-28.08-28c-12.12.17-24.24.09-36.36,0a21.9,21.9,0,0,0-8.4,1.46C79.24,54,71.78,59,70.08,69.8,68.7,78.57,69.89,87.3,69.31,94.46Zm49,187.13H103.42c-6,0-9.24,3.2-9.31,9.21s-.06,11.81,0,17.71c.07,7.87,3.35,11.56,11.06,11.25,4.69-.2,5.48,1.55,5.34,5.64-.09,2.55-1.33,3.05-3.18,3.73-2.92,1.09-6,1.62-8.91,2.86-4.2,1.78-6.79.29-8.44-4.1-1.26-3.36-2.22-6.84-3.65-10.13-2-4.57-5.87-6.64-9.79-5.33-4.61,1.54-4.89,5.56-4.37,9.33,1.22,8.9,4.7,17.15,8.24,25.33,1.7,3.93,4.91,4.92,8.91,3.51a65.27,65.27,0,0,1,8.47-2.74c1.4-.29,3.39-2.35,4.55.14,1,2.19.39,4.19-1.52,6-1.71,1.59-4.1,1.54-5.82,3-8.88,7.49-19,13.19-28.34,20.13-2.62,2-3.42,4.24-2.72,6.73.83,3,2.48,5.74,6.4,6,3.36.25,5.71-1.62,8.18-3.25,11.11-7.32,22.24-14.61,33.21-22.14,2.64-1.8,3.62-1.19,4.89,1.34,3.18,6.31,6.55,12.52,9.92,18.74,2.89,5.32,5.4,6.3,11.21,4.4q10.25-3.34,20.44-6.87c5-1.72,7-5.49,5.6-10-1.16-3.67-5.08-5.41-9.85-4s-9.54,3-14.22,4.7c-1.38.52-2.47.94-3.16-.53q-3.12-6.58-6-13.3a2.25,2.25,0,0,1,.49-2.68c2.68-1.89,2.27-4.63,2.31-7.33,0-2.17,0-4.74,2.06-5.87,3.53-2,9.25.4,11.2,4.18,1.57,3.06,2.55,6.45,5.22,8.9,3.24,3,6.81,2.64,10,.45,2.92-2,2.57-5.12,1.44-8.36-2-5.67-5.1-10.74-7.65-16.1-1.21-2.53-3.53-3.71-6.53-3.65-6.39.12-12.78-.13-19.15.11-3.23.12-4.46-.63-4.38-4.14.07-3.29.47-4.74,4.35-4.68,7.38.13,10.79-2.68,11-8.73a209.13,209.13,0,0,0,0-21.54c-.37-5.74-3.29-8.52-8.29-8C127.88,282,123.05,281.58,118.27,281.59Z"/><path class="cls-8" d="M140.9,213.58c-10.76,1.6-21.61.31-32.39,1-1.67.11-1.73-.54-1.93-1.78-.64-4.07-2.32-7.61-5.9-9.91-1.66-1.07-1-1.92-.16-3a146.41,146.41,0,0,1,21.63-24.08c2.6-2.26,5.48-3,8.81-1.42,12.68,6,21,15.54,24.32,29.25C148.83,204.55,144.55,208.61,140.9,213.58Z"/><path class="cls-8" d="M114,137c-5.52-.35-12.6-2.88-19-7.4-3-2.17-4-5-1.93-8.24s4.9-4.52,8.58-3.17a34.64,34.64,0,0,1,4.16,2.3c6.75,3.64,13.39,4.74,20.06-.37,3.11-2.39,6.19-2,8.75,1.18s2.07,6.13-.71,8.87a16.24,16.24,0,0,1-4.37,3.61A31.82,31.82,0,0,1,114,137Z"/><path class="cls-8" d="M136.17,96.52a62.27,62.27,0,0,1,.06-7.61c.45-3.65,2.78-5.72,6.47-5.6,3.47.1,5.77,2.18,6,5.6a112,112,0,0,1,0,14.77c-.25,3.64-2.84,5.65-6.47,5.54a5.84,5.84,0,0,1-6-5.55,63.1,63.1,0,0,1-.05-7.15Z"/><path class="cls-8" d="M92.29,96.24c0,2.38-.17,4.78,0,7.14.32,3.57-1.38,5.49-4.7,5.83-3.66.37-6.53-1.51-6.88-5a82.14,82.14,0,0,1,0-15.68c.34-3.58,3.11-5.51,6.8-5.16,3.3.32,5.06,2.19,4.75,5.78C92.13,91.47,92.29,93.86,92.29,96.24Z"/><path class="cls-8" d="M110.38,303.73v3.34c0,5.1-1.78,6.32-6.94,5.2-1.92-.41-1.66-1.6-1.67-2.81,0-3.82.19-7.64-.07-11.44s2.27-3,4.36-3,4.74-.78,4.35,3C110.22,299.9,110.38,301.82,110.38,303.73Z"/><path class="cls-8" d="M111.13,257.55c-9.54-.12-17.49-4.14-24.65-10.07-1.6-1.32-3.2-2.63-4.75-4-4.74-4.18-4.7-10.75-.06-15.09a3.39,3.39,0,0,1,4.27-.73,14.06,14.06,0,0,0,12,.17c1.85-.83,2.93-.25,4.14,1,7.2,7.66,14.46,15.27,21.67,22.92,2,2.12,2.3,3.6-1.36,4.21S115,257.75,111.13,257.55Z"/><path class="cls-8" d="M78,190.82c.92,2,1.7,3.86,2.64,5.65,1.88,3.6,2.62,7-.48,10.46a10.53,10.53,0,0,0-2.23,5.21c-.46,3.06-2.57,2.19-4.33,2.3-2.39.14-2.22-1.55-2.37-3.2C70.51,203.67,71.51,196.66,78,190.82Z"/></g></g></svg>
