# Blender 4.1.0
# www.blender.org
mtllib quit.mtl
o Cube
v 0.327254 -0.181980 0.608871
v -0.313417 0.482862 0.299029
v 0.447856 -0.180174 -0.501683
v -0.158013 -0.469901 -0.453756
v -0.509344 -0.130198 0.566480
v -0.170530 0.123738 0.669915
v -0.701751 -0.388604 -0.026093
v -0.058126 -0.600071 0.177648
v 0.602512 0.001172 0.158779
v 0.397865 0.302040 0.491918
v -0.205449 0.124146 -0.526448
v 0.525024 0.216227 -0.218095
vn 0.0499 0.9184 -0.3926
vn 0.2367 0.1954 0.9517
vn -0.5626 0.4750 0.6767
vn -0.6250 -0.1438 -0.7673
vn -0.2639 -0.9521 -0.1545
vn -0.4065 -0.7817 0.4729
vn 0.8528 0.0018 0.5223
vn -0.0197 -0.1230 -0.9922
vn -0.0067 0.7171 0.6969
vn -0.0667 -0.2987 0.9520
vn -0.9228 0.3576 0.1437
vn 0.6731 -0.7382 0.0451
vn 0.6706 -0.7334 0.1117
vn 0.8697 0.4839 0.0973
vn -0.8170 0.4821 -0.3164
vn 0.4023 -0.8820 -0.2455
vn 0.2745 0.5236 -0.8066
vn 0.2634 0.9622 -0.0691
vn -0.0790 -0.6795 0.7294
vn 0.9751 -0.0329 -0.2193
vt 0.848514 0.539351
vt 0.820532 0.676253
vt 0.671876 0.544562
vt 0.454172 0.775094
vt 0.607585 0.713782
vt 0.540442 0.924051
vt 0.455378 1.000000
vt 0.625000 0.959922
vt 0.389479 0.165821
vt 0.589105 0.241187
vt 0.425983 0.298012
vt 0.246218 0.529293
vt 0.246231 0.707996
vt 0.150885 0.604273
vt 0.125000 0.750000
vt 0.522162 0.639385
vt 0.626505 0.705513
vt 0.437278 0.520135
vt 0.482058 0.031587
vt 0.618730 0.047131
vt 0.597452 0.476323
vt 0.384201 0.881345
s 0
usemtl Material
f 11/1/1 2/2/1 12/3/1
f 1/4/2 10/5/2 6/6/2
f 5/7/3 6/6/3 2/8/3
f 7/9/4 11/10/4 4/11/4
f 4/12/5 8/13/5 7/14/5
f 7/14/6 8/13/6 5/15/6
f 9/16/7 10/17/7 1/4/7
f 4/11/8 11/10/8 3/18/8
f 6/6/9 10/5/9 2/8/9
f 5/7/10 1/4/10 6/6/10
f 5/19/11 2/20/11 7/9/11
f 9/16/12 8/13/12 3/18/12
f 1/4/13 8/13/13 9/16/13
f 9/16/14 12/3/14 10/17/14
f 7/9/15 2/20/15 11/10/15
f 4/12/16 3/18/16 8/13/16
f 3/18/17 11/10/17 12/21/17
f 10/17/18 12/3/18 2/2/18
f 5/7/19 8/22/19 1/4/19
f 12/21/20 9/16/20 3/18/20
