<?xml version="1.0" encoding="UTF-8"?>
<svg xmlns="http://www.w3.org/2000/svg" xmlns:xlink="http://www.w3.org/1999/xlink" width="16px" height="16px" viewBox="0 0 16 16" version="1.1">
<g id="surface1">
<path style=" stroke:none;fill-rule:nonzero;fill:rgb(40.392157%,22.745098%,71.764708%);fill-opacity:1;" d="M 14.222656 1.777344 L 14.222656 14.222656 L 1.777344 14.222656 L 1.777344 1.777344 L 14.222656 1.777344 M 14.222656 0 L 1.777344 0 C 0.800781 0 0 0.800781 0 1.777344 L 0 14.222656 C 0 15.207031 0.800781 16 1.777344 16 L 14.222656 16 C 15.207031 16 16 15.207031 16 14.222656 L 16 1.777344 C 16 0.800781 15.207031 0 14.222656 0 M 8 4.445312 C 6.035156 4.445312 4.445312 6.035156 4.445312 8 C 4.445312 9.964844 6.035156 11.554688 8 11.554688 C 9.964844 11.554688 11.554688 9.964844 11.554688 8 C 11.554688 6.035156 9.964844 4.445312 8 4.445312 Z M 8 4.445312 "/>
</g>
</svg>
